<?xml version="1.0" encoding="UTF-8"?>
<!DOCTYPE svg PUBLIC "-//W3C//DTD SVG 1.1//EN" "http://www.w3.org/Graphics/SVG/1.1/DTD/svg11.dtd">
<!-- Creator: CorelDRAW 2020 (64-Bit) -->
<?xml-stylesheet href="dzen.css" type="text/css"?>
<svg xmlns="http://www.w3.org/2000/svg" xml:space="preserve" width="14.1824mm" height="14.3315mm" version="1.1" style="shape-rendering:geometricPrecision; text-rendering:geometricPrecision; image-rendering:optimizeQuality; fill-rule:evenodd; clip-rule:evenodd"
viewBox="0 0 1122.57 1134.38"
 xmlns:xlink="http://www.w3.org/1999/xlink"
 xmlns:xodm="http://www.corel.com/coreldraw/odm/2003">
 <g id="Слой_x0020_1">
  <metadata id="CorelCorpID_0Corel-Layer"/>
  <g id="_2769631208000">
   <path class="fil0" d="M584.64 1134.3c280.56,0 537.85,-244.17 537.85,-537.85 -179.37,0 -340.55,-9.27 -458.17,138.18 -70.57,88.42 -79.67,244.17 -79.67,399.75l-0.01 -0.08z" fill="#5f3823"/>
   <path class="fil0" d="M584.64 58.52c0,358.65 115.71,465.96 421.27,479.86l116.66 -0.53c0,-288.61 -257.02,-531.64 -537.85,-537.85l0 58.42 -0.09 0.09z" fill="#5f3823"/>
   <path class="fil0" d="M537.85 1134.3c0,-159.86 -0.61,-321.84 -96.03,-418.38 -122.79,-124.27 -263.59,-119.46 -441.82,-119.46 0,285.62 252.22,537.85 537.85,537.85z" fill="#5f3823"/>
   <path class="fil0" d="M-0 537.94c413.31,0 537.85,-68.04 537.85,-537.85 -280.99,0 -537.85,253.19 -537.85,537.85z" fill="#5f3823"/>
  </g>
 </g>
</svg>
